# xmcd CD database file
#
# Track frame offsets:
#	150
#	15957
#	29033
#	46041
#	64607
#	81020
#	100497
#	117529
#	135464
#	155419
#	188036
#	211053
#	238026
#	252393
#	271480
#	295122
#
# Disc length: 4234 seconds
#
# Revision: 1
# Processed by: cddbd v1.5.2PL0 Copyright (c) Steve Scherf et al.
# Submitted via: CDex 1.51
#
DISCID=da108810
DTITLE=Robert Cray - The Definitive Collection
DYEAR=2007
DGENRE=Blues
TTITLE0=Phone Booth
TTITLE1=Bad Influence
TTITLE2=Playin' In The Dirt
TTITLE3=Smoking Gun
TTITLE4=I Guess I Showed Her
TTITLE5=Right Next Door (Because Of Me)
TTITLE6=Don't Be Afraid Of The Dark
TTITLE7=Forecast (Calls For Pain)
TTITLE8=Consequences
TTITLE9=I Was Warned
TTITLE10=I Shiver
TTITLE11=Moan
TTITLE12=Trick Or Treat
TTITLE13=Love Gone To Waste
TTITLE14=Survivor
TTITLE15=Poor Johnny
EXTD=YEAR: 2007
EXTT0=
EXTT1=
EXTT2=
EXTT3=
EXTT4=
EXTT5=
EXTT6=
EXTT7=
EXTT8=
EXTT9=
EXTT10=
EXTT11=
EXTT12=
EXTT13=
EXTT14=
EXTT15=
PLAYORDER=
